Coordinates
version=1
nRows=17
nColumns=40
inDegrees=yes

Units are S.I. units (second, meters, Newtons, ...)
Angles are in degrees.

endheader
time	pelvis_tilt	pelvis_list	pelvis_rotation	pelvis_tx	pelvis_ty	pelvis_tz	hip_flexion_r	hip_adduction_r	hip_rotation_r	knee_angle_r	knee_angle_r_beta	ankle_angle_r	subtalar_angle_r	mtp_angle_r	hip_flexion_l	hip_adduction_l	hip_rotation_l	knee_angle_l	knee_angle_l_beta	ankle_angle_l	subtalar_angle_l	mtp_angle_l	lumbar_extension	lumbar_bending	lumbar_rotation	arm_flex_r	arm_add_r	arm_rot_r	elbow_flex_r	pro_sup_r	wrist_flex_r	wrist_dev_r	arm_flex_l	arm_add_l	arm_rot_l	elbow_flex_l	pro_sup_l	wrist_flex_l	wrist_dev_l
     42.53500000	     -5.04623900	     -4.02596813	      0.07482967	      0.88166581	      0.91910424	      0.50567133	     22.96748895	      0.75277171	    -11.82012743	     24.66284776	     24.66284776	      7.09952668	     -8.79553761	     -2.27466224	     14.95560148	     -9.06107596	     -2.36763821	     49.33151234	     49.33151234	     15.15519860	    -18.73638951	      6.03841129	    -11.01900341	      7.98393562	      1.75111868	     17.45697512	    -13.30632578	     -9.56546485	     36.51698139	     41.78779739	      0.00000000	      0.00000000	      9.13049600	     -8.50486234	     -7.31600403	     51.84978632	     42.57736319	      0.00000000	      0.00000000
     42.54828571	     -5.23981004	     -4.14073307	      0.20318317	      0.88079074	      0.91954518	      0.50801413	     22.56716683	      0.98779190	    -12.16544746	     24.31035721	     24.31035721	      7.48517450	     -8.31682139	     -2.07142299	     17.33915832	     -9.25505207	     -1.55028146	     53.01622150	     53.01622150	     15.99767855	    -18.77596295	     12.12235543	    -10.89632401	      8.03853738	      1.68950554	     18.72345625	    -13.72423120	     -7.72640480	     38.50708870	     41.98114464	      0.00000000	      0.00000000	      8.86427129	     -8.05321511	     -7.21215058	     47.68792431	     42.91430074	      0.00000000	      0.00000000
     42.56157143	     -5.23829126	     -4.30494155	      0.15626686	      0.87985935	      0.92019724	      0.51067879	     22.02488701	      1.34572515	    -12.33251616	     24.04917384	     24.04917384	      7.72392379	     -7.99544962	     -2.12451363	     19.12054123	     -9.74772510	     -1.31475998	     55.67375376	     55.67375376	     14.94779520	    -18.96110234	     12.41124379	    -11.12828655	      8.02416891	      1.98621846	     20.54443172	    -13.92492429	     -7.72035145	     39.41256708	     41.98160861	      0.00000000	      0.00000000	      7.71085209	     -7.75448750	     -7.05022071	     46.66660208	     42.90739934	      0.00000000	      0.00000000
     42.57485714	     -5.36624277	     -4.40624109	      0.19829311	      0.87861933	      0.92079879	      0.51310702	     21.54872582	      1.58173167	    -12.70085575	     23.64637952	     23.64637952	      8.02847582	     -7.35313242	     -2.04840543	     21.15434248	     -9.97555617	     -0.76441838	     58.10657910	     58.10657910	     15.23511728	    -19.01059154	     15.90698135	    -11.12240049	      7.96329924	      1.98159498	     21.87921403	    -14.20182149	     -6.60065531	     41.19841008	     42.13096616	      0.00000000	      0.00000000	      7.61829371	     -7.45191638	     -6.83869633	     42.39695258	     43.13257348	      0.00000000	      0.00000000
     42.58814286	     -5.49178272	     -4.56222921	      0.16928004	      0.87731388	      0.92136458	      0.51562725	     21.06957528	      1.93821619	    -12.89895399	     23.21106863	     23.21106863	      8.22842338	     -6.93873592	     -2.03871472	     22.93873849	    -10.37435861	     -0.47033729	     59.73058777	     59.73058777	     14.71030416	    -19.08159165	     16.10298408	    -11.20675880	      7.90224052	      1.98263026	     23.55864047	    -14.14397092	     -6.55866666	     42.33494237	     42.13823907	      0.00000000	      0.00000000	      6.42776376	     -7.32491788	     -6.69563760	     41.14254539	     43.14141364	      0.00000000	      0.00000000
     42.60142857	     -5.60705370	     -4.66101841	      0.16434712	      0.87581775	      0.92206465	      0.51795776	     20.56501328	      2.21610106	    -13.13425159	     22.73170685	     22.73170685	      8.41204051	     -6.45120025	     -2.00835862	     24.60404445	    -10.68079392	     -0.21299187	     60.73192636	     60.73192636	     14.45518224	    -19.11859082	     16.49297252	    -11.29706312	      7.78514719	      1.82916342	     25.26160517	    -14.02138074	     -6.42216413	     43.65213219	     42.13692527	      0.00000000	      0.00000000	      5.40375050	     -7.26676276	     -6.51791704	     39.43569795	     43.15100904	      0.00000000	      0.00000000
     42.61471429	     -5.70156505	     -4.60210978	      0.15218301	      0.87421353	      0.92295708	      0.52001474	     20.06174859	      2.29033661	    -13.36228012	     22.31184545	     22.31184545	      8.67579822	     -5.81075831	     -1.85361726	     26.09296369	    -10.75911755	     -0.03657880	     61.08549191	     61.08549191	     14.74414858	    -19.13486129	     17.89704793	    -11.42921577	      7.49603071	      2.25517128	     26.17079004	    -14.58527022	     -5.52587464	     46.03137332	     42.23809355	      0.00000000	      0.00000000	      5.59921951	     -6.97660149	     -6.16627633	     35.40095965	     43.32550687	      0.00000000	      0.00000000
     42.62800000	     -5.84201407	     -4.64620087	      0.20504400	      0.87249515	      0.92373071	      0.52192249	     19.55539695	      2.50878360	    -13.51006423	     21.74254500	     21.74254500	      8.80858904	     -5.45463406	     -1.77248643	     27.51647701	    -10.95297562	      0.12295600	     60.81624999	     60.81624999	     14.72626437	    -19.14765935	     17.93845805	    -11.51556818	      7.31562759	      2.11328965	     27.70953242	    -14.50665376	     -5.53088241	     47.37377875	     42.24298370	      0.00000000	      0.00000000	      4.53371894	     -6.95077490	     -6.04427702	     34.26386389	     43.33968200	      0.00000000	      0.00000000
     42.64128571	     -5.96925050	     -4.61499991	      0.29147357	      0.87073893	      0.92459864	      0.52353709	     19.01949494	      2.61781066	    -13.70592431	     21.14806988	     21.14806988	      8.93323789	     -5.05314619	     -1.69189773	     28.73731964	    -11.02305360	      0.21380338	     59.88268324	     59.88268324	     14.81470282	    -19.15987241	     17.99171265	    -11.61691559	      7.08421725	      1.88306354	     29.13049210	    -14.38427202	     -5.45156436	     48.96430823	     42.23815947	      0.00000000	      0.00000000	      3.61417298	     -6.94716160	     -5.87377481	     32.87888155	     43.35382380	      0.00000000	      0.00000000
     42.65457143	     -6.08442946	     -4.57867113	      0.43566145	      0.86892730	      0.92540648	      0.52482096	     18.49730252	      2.68416023	    -13.94040678	     20.60752052	     20.60752052	      9.08357409	     -4.66075430	     -1.64656091	     29.79293248	    -11.04140782	      0.26630136	     58.37681767	     58.37681767	     14.93697581	    -19.14327328	     17.98947127	    -11.71330896	      6.88388764	      1.75979006	     30.29787429	    -14.44979915	     -5.28021595	     50.97291892	     42.23501433	      0.00000000	      0.00000000	      2.90447092	     -6.90583537	     -5.64337257	     31.27300357	     43.38328534	      0.00000000	      0.00000000
     42.66785714	     -6.22631800	     -4.51161132	      0.61632765	      0.86710423	      0.92618759	      0.52583238	     17.97452345	      2.71995714	    -14.11875917	     19.99831063	     19.99831063	      9.19354473	     -4.35796396	     -1.59162038	     30.67881518	    -10.96975246	      0.27368090	     56.29798003	     56.29798003	     15.02912896	    -19.11737855	     17.93682670	    -11.77233715	      6.65848285	      1.68323272	     31.32468955	    -14.55853997	     -5.16646162	     52.96705312	     42.22740580	      0.00000000	      0.00000000	      2.19510450	     -6.86541360	     -5.44188129	     29.99641736	     43.40757034	      0.00000000	      0.00000000
     42.68114286	     -6.42055634	     -4.38772576	      0.82644241	      0.86519837	      0.92681994	      0.52653929	     17.54984520	      2.67310352	    -14.24895129	     19.45652894	     19.45652894	      9.30088226	     -4.18892428	     -1.55627493	     31.44440270	    -10.77731264	      0.22661761	     53.73392160	     53.73392160	     15.06993916	    -19.07845979	     17.96955900	    -11.74548279	      6.38023769	      1.65514983	     32.34568408	    -14.69394446	     -5.15975825	     54.47154484	     42.21324201	      0.00000000	      0.00000000	      1.43885355	     -6.83930526	     -5.33034448	     29.21228806	     43.41465375	      0.00000000	      0.00000000
     42.69442857	     -6.55833499	     -4.37897117	      1.10139250	      0.86335485	      0.92728533	      0.52689805	     17.08005939	      2.68646313	    -14.57912764	     18.95337284	     18.95337284	      9.37936189	     -3.86262444	     -1.83404060	     31.98494859	    -10.64391698	      0.20912158	     50.75536531	     50.75536531	     14.62999295	    -19.01274950	     16.75051741	    -11.84436191	      6.34671104	      2.25205704	     32.00139267	    -15.79323886	     -4.97229019	     59.34700708	     42.26928111	      0.00000000	      0.00000000	      1.34832111	     -6.65434164	     -4.79992341	     27.55999326	     43.54922859	      0.00000000	      0.00000000
     42.70771429	     -6.67192490	     -4.30704975	      1.39815197	      0.86152439	      0.92775313	      0.52694626	     16.55783396	      2.65122807	    -14.75938048	     18.39657700	     18.39657700	      9.50287506	     -3.73010848	     -1.85079255	     32.34139374	    -10.31830281	      0.27081622	     47.48557917	     47.48557917	     14.53461963	    -18.90141536	     16.72512575	    -11.90769992	      6.25248337	      1.88081991	     33.10027986	    -15.62627682	     -5.12414401	     60.98100540	     42.28499330	      0.00000000	      0.00000000	      0.44641666	     -6.67420186	     -4.66879045	     27.01783398	     43.56812670	      0.00000000	      0.00000000
     42.72100000	     -6.88967375	     -4.26445305	      1.68228178	      0.85963083	      0.92787525	      0.52683445	     16.26601381	      2.60661624	    -14.94774472	     18.05739473	     18.05739473	      9.65036186	     -3.68889092	     -1.92250662	     32.72693031	     -9.97848763	      0.35737436	     44.07221545	     44.07221545	     14.31167650	    -18.64316984	     16.78538505	    -11.73793034	      6.17684250	      1.86269800	     34.01822063	    -15.80306193	     -5.23179349	     62.24686458	     42.28209584	      0.00000000	      0.00000000	     -0.32726106	     -6.65819174	     -4.63827375	     26.75948432	     43.57862333	      0.00000000	      0.00000000
     42.73428571	     -7.00484304	     -4.29362595	      2.00121253	      0.85786957	      0.92791703	      0.52646007	     15.83652082	      2.58945806	    -15.35535985	     17.69476608	     17.69476608	      9.73445825	     -3.36560653	     -2.43140711	     32.81171499	     -9.69382101	      0.41935424	     40.35618447	     40.35618447	     13.17453839	    -18.35547319	     14.34829640	    -11.81078677	      6.24293027	      2.20141303	     33.83649708	    -16.54507710	     -5.40150815	     66.48250207	     42.34131621	      0.00000000	      0.00000000	     -1.02478404	     -6.59068787	     -4.55112293	     27.02524344	     43.71433630	      0.00000000	      0.00000000
     42.74757143	     -7.15209794	     -4.34498593	      2.31718084	      0.85601525	      0.92784989	      0.52591493	     15.45257194	      2.61491279	    -15.61693737	     17.32244693	     17.32244693	      9.85444492	     -3.26157702	     -2.61740549	     32.94301121	     -9.35051427	      0.64315059	     36.77817160	     36.77817160	     12.57164403	    -17.81950375	     13.65971224	    -11.74514091	      6.34976817	      2.02322450	     34.53461522	    -16.54421912	     -5.58330574	     68.46604277	     42.39986825	      0.00000000	      0.00000000	     -1.79381584	     -6.58990442	     -4.46766216	     26.85827580	     43.78125254	      0.00000000	      0.00000000
